<?xml version="1.0" encoding="UTF-8" standalone="no"?>
<!-- Created with Inkscape (http://www.inkscape.org/) -->

<svg
   xmlns:dc="http://purl.org/dc/elements/1.1/"
   xmlns:cc="http://creativecommons.org/ns#"
   xmlns:rdf="http://www.w3.org/1999/02/22-rdf-syntax-ns#"
   xmlns:svg="http://www.w3.org/2000/svg"
   xmlns="http://www.w3.org/2000/svg"
   xmlns:xlink="http://www.w3.org/1999/xlink"
   xmlns:sodipodi="http://sodipodi.sourceforge.net/DTD/sodipodi-0.dtd"
   xmlns:inkscape="http://www.inkscape.org/namespaces/inkscape"
   width="900"
   height="900"
   id="svg2816"
   version="1.1"
   inkscape:version="0.47 r22583"
   sodipodi:docname="color_rings_bool.svg"
   inkscape:export-filename="/Users/kalford/Sites/clock/color_rings_bool.png"
   inkscape:export-xdpi="90"
   inkscape:export-ydpi="90">
  <script
     xlink:href=""
     id="script2830" />
  <defs
     id="defs2818">
    <inkscape:perspective
       sodipodi:type="inkscape:persp3d"
       inkscape:vp_x="0 : 526.18109 : 1"
       inkscape:vp_y="0 : 1000 : 0"
       inkscape:vp_z="744.09448 : 526.18109 : 1"
       inkscape:persp3d-origin="372.04724 : 350.78739 : 1"
       id="perspective2824" />
    <clipPath
       clipPathUnits="userSpaceOnUse"
       id="clipPath4391">
      <path
         id="path4393"
         d="m 451.25,160.10975 c -243.13117,0 -441,197.86883 -441,441 0,243.13117 197.86883,441.00005 441,441.00005 243.13117,0 441,-197.86888 441,-441.00005 0,-243.13117 -197.86883,-441 -441,-441 z m 0,72 c 204.21949,0 369,164.78052 369,369 0,204.21949 -164.78051,369 -369,369 -204.21948,0 -368.96875,-164.78051 -368.96875,-369 0,-204.21948 164.74927,-369 368.96875,-369 z m -1.25,19.25 c -193.42555,0 -351,157.57445 -351,351 0,193.42554 157.57445,351 351,351 193.42554,0 351,-157.57446 351,-351 0,-193.42555 -157.57446,-351 -351,-351 z m 0,72 c 154.51385,0 279,124.48614 279,279 0,154.51385 -124.48615,279 -279,279 -154.51386,0 -279,-124.48615 -279,-279 0,-154.51386 124.48614,-279 279,-279 z m 0,18 c -143.71992,0 -261,117.28008 -261,261 0,143.71991 117.28008,261 261,261 143.71991,0 261,-117.28009 261,-261 0,-143.71992 -117.28009,-261 -261,-261 z m 0,72 c 104.80822,0 189,84.19177 189,189 0,104.80822 -84.19178,189 -189,189 -104.80823,0 -189,-84.19178 -189,-189 0,-104.80823 84.19177,-189 189,-189 z m 0,18 c -94.01429,0 -171,76.98572 -171,171 0,94.01429 76.98571,171 171,171 94.01428,0 171,-76.98571 171,-171 0,-94.01428 -76.98572,-171 -171,-171 z m 0,72 c 55.1026,0 99,43.89741 99,99 0,55.1026 -43.8974,99 -99,99 -55.1026,0 -99,-43.8974 -99,-99 0,-55.10259 43.8974,-99 99,-99 z m 0,18 c -44.30865,0 -81,36.69135 -81,81 0,44.30866 36.69135,81 81,81 44.30866,0 81.00002,-36.69134 81,-81 0,-44.30865 -36.69134,-81 -81,-81 z"
         style="fill:#0000ff;fill-opacity:1;stroke:none" />
    </clipPath>
    <filter
       id="filter4507"
       inkscape:label="Drop shadow"
       width="1.5"
       height="1.5"
       x="-.25"
       y="-.25">
      <feGaussianBlur
         id="feGaussianBlur4509"
         in="SourceAlpha"
         stdDeviation="5.000000"
         result="blur" />
      <feColorMatrix
         id="feColorMatrix4511"
         result="bluralpha"
         type="matrix"
         values="1 0 0 0 0 0 1 0 0 0 0 0 1 0 0 0 0 0 0.400000 0 " />
      <feOffset
         id="feOffset4513"
         in="bluralpha"
         dx="4.000000"
         dy="4.000000"
         result="offsetBlur" />
      <feMerge
         id="feMerge4515">
        <feMergeNode
           id="feMergeNode4517"
           in="offsetBlur" />
        <feMergeNode
           id="feMergeNode4519"
           in="SourceGraphic" />
      </feMerge>
    </filter>
  </defs>
  <sodipodi:namedview
     id="base"
     pagecolor="#ffffff"
     bordercolor="#000000"
     borderopacity="1"
     inkscape:pageopacity="0.0"
     inkscape:pageshadow="2"
     inkscape:zoom="0.66449955"
     inkscape:cx="517.82372"
     inkscape:cy="459.86653"
     inkscape:document-units="px"
     inkscape:current-layer="layer1"
     showgrid="true"
     units="in"
     inkscape:window-width="1440"
     inkscape:window-height="852"
     inkscape:window-x="0"
     inkscape:window-y="0"
     inkscape:window-maximized="0"
     inkscape:snap-global="true" />
  <metadata
     id="metadata2821">
    <rdf:RDF>
      <cc:Work
         rdf:about="">
        <dc:format>image/svg+xml</dc:format>
        <dc:type
           rdf:resource="http://purl.org/dc/dcmitype/StillImage" />
        <dc:title></dc:title>
      </cc:Work>
    </rdf:RDF>
  </metadata>
  <g
     inkscape:label="Layer 1"
     inkscape:groupmode="layer"
     id="layer1"
     transform="translate(0,-152.35975)">
    <g
       id="g4397"
       style="filter:url(#filter4507)">
      <path
         id="path2834"
         d="m 449.99596,251.37133 c -193.42555,0 -350.996535,157.57099 -350.996535,350.99654 0,193.42554 157.570985,350.99653 350.996535,350.99653 193.42554,0 350.99653,-157.57099 350.99653,-350.99653 0,-193.42555 -157.57099,-350.99654 -350.99653,-350.99654 z m 0,71.99711 c 154.51385,0 278.99942,124.48557 278.99942,278.99943 0,154.51385 -124.48557,278.99942 -278.99942,278.99942 -154.51386,0 -278.99943,-124.48557 -278.99943,-278.99942 0,-154.51386 124.48557,-278.99943 278.99943,-278.99943 z"
         style="font-size:medium;font-style:normal;font-variant:normal;font-weight:normal;font-stretch:normal;text-indent:0;text-align:start;text-decoration:none;line-height:normal;letter-spacing:normal;word-spacing:normal;text-transform:none;direction:ltr;block-progression:tb;writing-mode:lr-tb;text-anchor:start;color:#000000;fill:#45abcc;fill-opacity:1;stroke:none;stroke-width:79.34693909;marker:none;visibility:visible;display:inline;overflow:visible;enable-background:accumulate;font-family:Bitstream Vera Sans;-inkscape-font-specification:Bitstream Vera Sans" />
      <path
         id="path3608"
         d="m 449.99712,341.36438 c -143.71992,0 -261.00117,117.28125 -261.00117,261.00117 0,143.71991 117.28125,261.00116 261.00117,261.00116 143.71991,0 261.00116,-117.28125 261.00116,-261.00116 0,-143.71992 -117.28125,-261.00117 -261.00116,-261.00117 z m 0,72.00521 c 104.80822,0 188.99595,84.18773 188.99595,188.99596 0,104.80822 -84.18773,188.99595 -188.99595,188.99595 -104.80823,0 -188.99596,-84.18773 -188.99596,-188.99595 0,-104.80823 84.18773,-188.99596 188.99596,-188.99596 z"
         style="font-size:medium;font-style:normal;font-variant:normal;font-weight:normal;font-stretch:normal;text-indent:0;text-align:start;text-decoration:none;line-height:normal;letter-spacing:normal;word-spacing:normal;text-transform:none;direction:ltr;block-progression:tb;writing-mode:lr-tb;text-anchor:start;color:#000000;fill:#f01f24;fill-opacity:1;stroke:none;stroke-width:111.08570862;marker:none;visibility:visible;display:inline;overflow:visible;enable-background:accumulate;font-family:Bitstream Vera Sans;-inkscape-font-specification:Bitstream Vera Sans" />
      <path
         id="path3610"
         d="m 449.99827,431.36149 c -94.01429,0 -171.00174,76.98745 -171.00174,171.00173 0,94.01429 76.98745,171.00174 171.00174,171.00174 94.01428,0 171.00174,-76.98745 171.00174,-171.00174 0,-94.01428 -76.98746,-171.00173 -171.00174,-171.00173 z m 0,71.99305 c 55.1026,0 98.99653,43.90609 98.99653,99.00868 0,55.1026 -43.89393,98.99653 -98.99653,98.99653 -55.1026,0 -98.99653,-43.89393 -98.99653,-98.99653 0,-55.10259 43.89393,-99.00868 98.99653,-99.00868 z"
         style="font-size:medium;font-style:normal;font-variant:normal;font-weight:normal;font-stretch:normal;text-indent:0;text-align:start;text-decoration:none;line-height:normal;letter-spacing:normal;word-spacing:normal;text-transform:none;direction:ltr;block-progression:tb;writing-mode:lr-tb;text-anchor:start;color:#000000;fill:#fc770c;fill-opacity:1;stroke:none;stroke-width:185.14285278;marker:none;visibility:visible;display:inline;overflow:visible;enable-background:accumulate;font-family:Bitstream Vera Sans;-inkscape-font-specification:Bitstream Vera Sans" />
      <path
         sodipodi:nodetypes="csssc"
         id="path3612"
         d="m 449.99942,521.3586 c -44.30865,0 -80.99826,36.69366 -80.99826,81.00231 0,44.30866 36.68961,80.99825 80.99826,80.99825 44.30866,0 81.00232,-36.68959 81.0023,-80.99825 0,-44.30865 -36.69364,-81.00231 -81.0023,-81.00231 z"
         style="font-size:medium;font-style:normal;font-variant:normal;font-weight:normal;font-stretch:normal;text-indent:0;text-align:start;text-decoration:none;line-height:normal;letter-spacing:normal;word-spacing:normal;text-transform:none;direction:ltr;block-progression:tb;writing-mode:lr-tb;text-anchor:start;color:#000000;fill:#a6ff05;fill-opacity:1;fill-rule:nonzero;stroke:none;stroke-width:555.42858887;marker:none;visibility:visible;display:inline;overflow:visible;enable-background:accumulate;font-family:Bitstream Vera Sans;-inkscape-font-specification:Bitstream Vera Sans" />
      <path
         id="path3627"
         d="m 451.26241,160.10254 c -243.13117,0 -441.000009,197.86884 -441.000009,441.00001 0,243.13117 197.868839,441.00005 441.000009,441.00005 243.13117,0 441.00002,-197.86888 441.00002,-441.00005 0,-243.13117 -197.86885,-441.00001 -441.00002,-441.00001 z m 0,72.00521 c 204.21949,0 368.99481,164.77532 368.99481,368.9948 0,204.21949 -164.77532,368.99481 -368.99481,368.99481 -204.21948,0 -368.994799,-164.77532 -368.994799,-368.99481 0,-204.21948 164.775319,-368.9948 368.994799,-368.9948 z"
         style="font-size:medium;font-style:normal;font-variant:normal;font-weight:normal;font-stretch:normal;text-indent:0;text-align:start;text-decoration:none;line-height:normal;letter-spacing:normal;word-spacing:normal;text-transform:none;direction:ltr;block-progression:tb;writing-mode:lr-tb;text-anchor:start;color:#000000;fill:#a6fffa;fill-opacity:1;stroke:none;stroke-width:61.71428299000001516;marker:none;visibility:visible;display:inline;overflow:visible;enable-background:accumulate;font-family:Bitstream Vera Sans;-inkscape-font-specification:Bitstream Vera Sans;opacity:1" />
      <g
         clip-path="url(#clipPath4391)"
         mask="none"
         id="g4376">
        <path
           style="opacity:0.3539823;fill:#000000;fill-opacity:1;stroke:none"
           d="m 500.30304,557.784 423.15152,-136 c 17.77846,118.76761 23.54989,238.62677 0,361.15151 l -423.15152,-136 c 9.21336,-25.27732 10.18378,-58.5985 0,-89.15151 z"
           id="rect3663"
           sodipodi:nodetypes="ccccc" />
        <path
           sodipodi:nodetypes="ccccc"
           id="use3670"
           d="m 592.30304,557.784 423.15156,-136 c 17.7784,118.76761 23.5499,238.62677 0,361.15151 l -423.15156,-136 c 9.21336,-25.27732 10.18378,-58.5985 0,-89.15151 z"
           style="opacity:0.3539823;fill:#000000;fill-opacity:1;stroke:none" />
        <path
           style="opacity:0.3539823;fill:#000000;fill-opacity:1;stroke:none"
           d="m 684.30304,557.784 423.15156,-136 c 17.7784,118.76761 23.5499,238.62677 0,361.15151 l -423.15156,-136 c 9.21336,-25.27732 10.18378,-58.5985 0,-89.15151 z"
           id="use3672"
           sodipodi:nodetypes="ccccc" />
        <path
           style="opacity:0.3539823;fill:#000000;fill-opacity:1;stroke:none"
           d="m 776.30304,557.784 423.15156,-136 c 17.7784,118.76761 23.5499,238.62677 0,361.15151 l -423.15156,-136 c 9.21336,-25.27732 10.18378,-58.5985 0,-89.15151 z"
           id="use3674"
           sodipodi:nodetypes="ccccc" />
      </g>
    </g>
  </g>
</svg>
