<?xml version="1.0" encoding="UTF-8" standalone="no"?>
<!-- Created with Inkscape (http://www.inkscape.org/) -->

<svg
   xmlns:dc="http://purl.org/dc/elements/1.1/"
   xmlns:cc="http://creativecommons.org/ns#"
   xmlns:rdf="http://www.w3.org/1999/02/22-rdf-syntax-ns#"
   xmlns:svg="http://www.w3.org/2000/svg"
   xmlns="http://www.w3.org/2000/svg"
   xmlns:xlink="http://www.w3.org/1999/xlink"
   xmlns:sodipodi="http://sodipodi.sourceforge.net/DTD/sodipodi-0.dtd"
   xmlns:inkscape="http://www.inkscape.org/namespaces/inkscape"
   width="900"
   height="900"
   id="svg2816"
   version="1.1"
   inkscape:version="0.47 r22583"
   sodipodi:docname="color_rings.svg">
  <script
     xlink:href=""
     id="script2830" />
  <defs
     id="defs2818">
    <inkscape:perspective
       sodipodi:type="inkscape:persp3d"
       inkscape:vp_x="0 : 526.18109 : 1"
       inkscape:vp_y="0 : 1000 : 0"
       inkscape:vp_z="744.09448 : 526.18109 : 1"
       inkscape:persp3d-origin="372.04724 : 350.78739 : 1"
       id="perspective2824" />
  </defs>
  <sodipodi:namedview
     id="base"
     pagecolor="#ffffff"
     bordercolor="#000000"
     borderopacity="1"
     inkscape:pageopacity="0.0"
     inkscape:pageshadow="2"
     inkscape:zoom="0.81"
     inkscape:cx="650.88759"
     inkscape:cy="450"
     inkscape:document-units="px"
     inkscape:current-layer="layer1"
     showgrid="true"
     units="in"
     inkscape:window-width="1440"
     inkscape:window-height="852"
     inkscape:window-x="0"
     inkscape:window-y="0"
     inkscape:window-maximized="0"
     inkscape:snap-global="true" />
  <metadata
     id="metadata2821">
    <rdf:RDF>
      <cc:Work
         rdf:about="">
        <dc:format>image/svg+xml</dc:format>
        <dc:type
           rdf:resource="http://purl.org/dc/dcmitype/StillImage" />
        <dc:title></dc:title>
      </cc:Work>
    </rdf:RDF>
  </metadata>
  <g
     inkscape:label="Layer 1"
     inkscape:groupmode="layer"
     id="layer1"
     transform="translate(0,-152.35975)">
    <rect
       style="fill:#1c1f24;fill-opacity:1;stroke:#1c1f24;stroke-width:72;stroke-miterlimit:4;stroke-opacity:1;stroke-dasharray:none"
       id="rect3652"
       width="989.39392"
       height="890.90912"
       x="-19.69697"
       y="-12.121212"
       transform="translate(0,152.35975)" />
    <path
       sodipodi:type="arc"
       style="fill:none;stroke:#45abcc;stroke-width:79.34693909000000644;stroke-linecap:butt;stroke-linejoin:miter;stroke-miterlimit:4;stroke-opacity:1;stroke-dasharray:none"
       id="path2834"
       sodipodi:cx="384.28571"
       sodipodi:cy="401.42856"
       sodipodi:rx="347.14285"
       sodipodi:ry="347.14285"
       d="m 731.42856,401.42856 a 347.14285,347.14285 0 1 1 -694.285707,0 347.14285,347.14285 0 1 1 694.285707,0 z"
       transform="matrix(0.90740742,0,0,0.90740742,101.2963,238.1005)" />
    <path
       transform="matrix(0.64814816,0,0,0.64814816,200.92593,342.17457)"
       d="m 731.42856,401.42856 a 347.14285,347.14285 0 1 1 -694.285707,0 347.14285,347.14285 0 1 1 694.285707,0 z"
       sodipodi:ry="347.14285"
       sodipodi:rx="347.14285"
       sodipodi:cy="401.42856"
       sodipodi:cx="384.28571"
       id="path3608"
       style="fill:none;stroke:#f01f24;stroke-width:111.08570862000000545;stroke-linecap:butt;stroke-linejoin:miter;stroke-miterlimit:4;stroke-opacity:1;stroke-dasharray:none"
       sodipodi:type="arc" />
    <path
       sodipodi:type="arc"
       style="fill:none;stroke:#fc770c;stroke-width:185.14285277999999835;stroke-linecap:butt;stroke-linejoin:miter;stroke-miterlimit:4;stroke-opacity:1;stroke-dasharray:none"
       id="path3610"
       sodipodi:cx="384.28571"
       sodipodi:cy="401.42856"
       sodipodi:rx="347.14285"
       sodipodi:ry="347.14285"
       d="m 731.42856,401.42856 a 347.14285,347.14285 0 1 1 -694.285707,0 347.14285,347.14285 0 1 1 694.285707,0 z"
       transform="matrix(0.38888889,0,0,0.38888889,300.55556,446.24864)" />
    <path
       transform="matrix(0.12962962,0,0,0.12962962,400.18519,550.32272)"
       d="m 731.42856,401.42856 a 347.14285,347.14285 0 1 1 -694.285707,0 347.14285,347.14285 0 1 1 694.285707,0 z"
       sodipodi:ry="347.14285"
       sodipodi:rx="347.14285"
       sodipodi:cy="401.42856"
       sodipodi:cx="384.28571"
       id="path3612"
       style="fill:#a6ff05;fill-opacity:1;stroke:#a6ff05;stroke-width:555.42858886999999868;stroke-linecap:butt;stroke-linejoin:miter;stroke-miterlimit:4;stroke-opacity:1;stroke-dasharray:none"
       sodipodi:type="arc" />
    <path
       transform="matrix(1.1666667,0,0,1.1666667,2.9342753,132.75879)"
       d="m 731.42856,401.42856 a 347.14285,347.14285 0 1 1 -694.285707,0 347.14285,347.14285 0 1 1 694.285707,0 z"
       sodipodi:ry="347.14285"
       sodipodi:rx="347.14285"
       sodipodi:cy="401.42856"
       sodipodi:cx="384.28571"
       id="path3627"
       style="fill:none;stroke:#a6fffa;stroke-width:61.71428299;stroke-linecap:butt;stroke-linejoin:miter;stroke-miterlimit:4;stroke-opacity:1;stroke-dasharray:none"
       sodipodi:type="arc" />
    <path
       style="opacity:0.3539823;fill:#000000;fill-opacity:1;stroke:none"
       d="m 500.30304,557.784 423.15152,-136 c 17.77846,118.76761 23.54989,238.62677 0,361.15151 l -423.15152,-136 c 9.21336,-25.27732 10.18378,-58.5985 0,-89.15151 z"
       id="rect3663"
       sodipodi:nodetypes="ccccc" />
    <use
       x="0"
       y="0"
       xlink:href="#rect3663"
       id="use3670"
       transform="translate(92,0)"
       width="900"
       height="900" />
    <use
       x="0"
       y="0"
       xlink:href="#use3670"
       id="use3672"
       transform="translate(92,0)"
       width="900"
       height="900" />
    <use
       x="0"
       y="0"
       xlink:href="#use3672"
       id="use3674"
       transform="translate(92,0)"
       width="900"
       height="900" />
  </g>
</svg>
